<?xml version="1.0" standalone="no"?>
<!DOCTYPE svg PUBLIC "-//W3C//DTD SVG 20010904//EN"
 "http://www.w3.org/TR/2001/REC-SVG-20010904/DTD/svg10.dtd">
<svg version="1.0" xmlns="http://www.w3.org/2000/svg"
 width="300.000000pt" height="303.000000pt" viewBox="0 0 300.000000 303.000000"
 preserveAspectRatio="xMidYMid meet">
<metadata>
Created by potrace 1.10, written by Peter Selinger 2001-2011
</metadata>
<g transform="translate(0.000000,303.000000) scale(0.100000,-0.100000)"
fill="#000000" stroke="none">
<path d="M1325 2959 c-282 -36 -550 -156 -781 -350 -357 -301 -554 -812 -490
-1270 51 -362 189 -637 443 -880 190 -182 396 -294 657 -359 258 -64 540 -54
785 26 381 126 683 387 864 749 63 127 125 312 132 400 3 39 3 38 -10 -10 -54
-203 -167 -394 -322 -546 -76 -74 -81 -77 -198 -118 -66 -23 -149 -53 -185
-66 -36 -13 -128 -47 -205 -75 -77 -28 -180 -66 -230 -85 -68 -27 -105 -35
-152 -35 -35 0 -63 4 -63 10 0 5 21 16 48 24 26 8 79 27 117 41 39 15 88 33
110 40 41 14 136 49 285 105 47 17 90 33 95 34 6 2 17 6 25 9 8 3 42 15 75 26
33 11 81 29 108 40 26 11 48 20 50 20 1 0 16 5 32 11 17 6 36 13 43 15 7 3 11
9 8 14 -5 8 -62 -11 -301 -101 -44 -17 -141 -52 -215 -78 -142 -49 -399 -144
-486 -178 -50 -20 -127 -21 -139 -2 -3 4 48 27 113 50 64 23 146 53 182 67 36
14 72 26 80 28 8 2 81 28 161 59 80 30 172 64 205 75 32 11 102 37 154 56 52
20 123 45 158 57 37 12 62 27 62 35 0 8 -4 11 -10 8 -11 -7 -133 -52 -270
-100 -52 -18 -120 -43 -150 -55 -30 -12 -62 -23 -70 -25 -8 -2 -58 -20 -110
-40 -52 -20 -106 -40 -120 -45 -14 -4 -70 -25 -125 -45 -55 -20 -118 -43 -140
-50 -22 -7 -68 -25 -103 -39 -60 -25 -74 -26 -136 -9 -18 5 -18 6 -2 15 9 5
62 25 119 45 121 43 216 77 352 128 55 20 127 46 160 57 57 19 145 52 284 105
35 14 71 26 80 28 9 2 36 12 61 22 25 11 71 28 103 38 31 11 57 24 57 31 0 7
-41 -3 -107 -28 -60 -22 -119 -43 -133 -48 -14 -5 -63 -22 -110 -40 -47 -17
-114 -42 -150 -55 -36 -13 -103 -37 -150 -55 -47 -17 -188 -69 -315 -114 -126
-46 -246 -90 -265 -98 -33 -14 -39 -13 -100 12 -117 49 -357 207 -374 247 -3
7 10 17 32 24 20 6 96 33 167 59 72 26 171 62 220 80 131 47 273 98 330 120
28 10 150 55 272 99 122 45 239 87 260 95 21 8 101 37 178 65 77 27 178 64
225 81 47 17 114 42 150 54 36 13 118 43 183 67 l117 43 0 66 c0 285 -107 596
-288 841 -58 77 -70 89 -92 85 -14 -2 -198 -68 -410 -146 -212 -77 -414 -152
-450 -165 -36 -13 -117 -42 -180 -65 -63 -23 -171 -62 -240 -87 -475 -170
-859 -311 -872 -320 -5 -2 -8 9 -8 26 0 32 16 46 61 55 13 2 40 11 59 19 19 8
112 43 205 77 209 76 292 106 372 136 34 13 66 24 72 24 6 0 11 4 11 8 0 17
-12 19 -38 7 -36 -18 -719 -265 -731 -265 -5 0 -6 11 -2 27 6 23 20 31 102 61
132 48 155 57 234 87 71 28 282 103 367 132 32 11 45 20 41 30 -3 8 -10 10
-17 5 -6 -5 -72 -30 -146 -56 -74 -27 -164 -59 -198 -73 -35 -13 -119 -44
-185 -68 -67 -23 -135 -48 -150 -54 -38 -15 -39 -15 -35 16 2 21 12 30 48 44
77 30 195 73 205 76 6 1 84 29 175 63 91 33 189 70 219 80 57 21 68 27 59 35
-3 3 -74 -19 -158 -50 -185 -68 -231 -84 -385 -139 -66 -24 -127 -47 -136 -50
-14 -6 -16 -2 -10 25 7 33 7 33 171 89 14 4 63 23 110 40 147 55 333 122 379
136 9 3 11 8 5 14 -6 6 -33 1 -74 -15 -36 -13 -128 -47 -205 -75 -77 -28 -189
-69 -248 -91 -60 -22 -111 -38 -114 -35 -3 3 0 19 6 35 10 22 21 31 49 36 20
4 42 10 47 15 8 6 69 29 95 35 3 1 16 6 30 12 14 6 72 27 130 48 223 79 270
99 262 107 -4 4 -32 -2 -62 -13 -63 -24 -235 -86 -360 -130 -47 -16 -102 -37
-123 -46 -45 -20 -53 -14 -34 24 13 23 32 35 99 58 46 16 85 30 88 30 3 0 28
9 55 19 28 10 73 27 100 37 28 10 79 29 115 42 36 13 73 27 83 31 10 3 16 10
13 15 -4 5 -36 -2 -74 -16 -37 -14 -96 -36 -132 -48 -36 -13 -121 -44 -189
-70 -68 -25 -126 -44 -128 -41 -2 2 4 18 14 35 15 27 32 37 108 62 50 16 99
33 110 38 11 5 47 19 80 31 33 12 82 30 109 41 27 10 55 19 62 19 14 0 19 12
8 22 -3 4 -27 -2 -52 -12 -328 -124 -371 -140 -382 -140 -11 0 25 58 45 73 9
6 86 30 92 28 2 0 24 9 50 20 27 12 89 35 138 53 50 17 91 38 93 45 2 9 -3 11
-15 6 -40 -16 -259 -97 -268 -99 -5 -1 -20 -7 -32 -14 -41 -23 -46 -12 -12 29
33 40 86 64 267 120 17 5 32 16 32 24 0 12 -10 11 -52 -6 -29 -12 -60 -23 -68
-26 -8 -3 -28 -11 -45 -18 -16 -7 -41 -16 -55 -20 -22 -6 -20 -2 17 36 30 31
61 51 108 67 36 13 65 28 65 34 0 6 -6 8 -12 5 -32 -12 -58 -18 -58 -14 0 11
154 109 236 150 213 107 456 149 714 125 l75 -7 -50 14 c-134 39 -379 54 -540
34z m92 -30 c-9 -6 -43 -17 -75 -25 -62 -16 -164 -55 -227 -86 -56 -28 -159
-91 -166 -102 -4 -5 -12 -5 -19 -1 -8 5 -11 4 -6 -3 3 -6 -2 -16 -13 -21 -11
-6 -22 -20 -26 -30 -3 -11 -16 -23 -28 -26 -23 -7 -197 -182 -197 -199 0 -5
-10 -17 -22 -27 -11 -11 -17 -19 -12 -19 5 0 -2 -7 -14 -16 -12 -8 -22 -20
-22 -25 0 -6 -13 -29 -30 -52 -16 -23 -31 -54 -34 -69 -5 -30 -30 -71 -38 -63
-3 3 -5 -9 -6 -26 0 -17 -7 -41 -16 -53 -8 -13 -16 -36 -18 -52 -2 -16 -10
-40 -17 -53 -7 -13 -11 -34 -8 -47 2 -13 0 -25 -4 -26 -10 -3 -20 -82 -23
-167 -2 -76 11 -82 111 -48 43 14 103 35 133 47 48 18 175 64 280 101 19 6 44
16 55 20 38 17 160 60 210 76 28 8 62 21 77 29 14 8 32 14 40 14 7 1 31 9 53
20 22 11 46 19 52 20 13 0 184 61 238 85 17 7 66 25 110 40 44 15 101 36 126
46 26 10 50 15 53 11 4 -3 10 -1 14 5 7 10 109 52 142 58 8 1 26 7 40 13 71
30 139 56 218 83 48 17 100 36 117 44 16 7 33 11 37 9 5 -3 15 2 24 10 20 21
46 20 67 -1 40 -41 76 -96 70 -106 -3 -5 -2 -7 4 -4 11 7 90 -121 129 -210 37
-82 85 -216 80 -221 -3 -2 0 -16 5 -31 18 -45 39 -193 39 -274 l0 -78 -53 -25
c-30 -13 -110 -44 -180 -68 -69 -25 -140 -52 -157 -61 -18 -9 -29 -11 -25 -5
5 8 2 9 -11 1 -44 -23 -90 -42 -118 -47 -17 -3 -35 -9 -41 -13 -5 -4 -53 -22
-105 -40 -52 -18 -108 -39 -125 -46 -31 -14 -153 -58 -170 -62 -5 -1 -35 -11
-65 -23 -30 -12 -63 -23 -72 -23 -10 -1 -18 -4 -18 -7 0 -3 -26 -14 -57 -25
-32 -10 -62 -22 -68 -26 -5 -4 -34 -14 -64 -23 -29 -9 -60 -21 -67 -27 -8 -6
-14 -9 -14 -6 0 3 -32 -7 -71 -23 -39 -16 -74 -29 -77 -28 -7 1 -32 -7 -72
-25 -14 -5 -33 -9 -44 -8 -12 2 -16 -1 -11 -10 6 -9 2 -11 -13 -7 -12 3 -22 3
-24 -1 -3 -8 -107 -48 -153 -60 -17 -4 -46 -15 -65 -24 -19 -8 -53 -21 -75
-28 -22 -6 -57 -23 -78 -36 -34 -21 -36 -26 -26 -46 15 -29 71 -80 136 -123
29 -19 55 -39 58 -44 4 -6 11 -8 16 -5 5 4 9 2 9 -3 0 -5 23 -20 50 -33 28
-13 50 -27 50 -32 0 -4 5 -5 10 -2 6 4 22 0 35 -9 34 -23 106 -46 98 -32 -4 6
4 4 17 -5 28 -18 78 -33 98 -30 7 1 33 -5 58 -15 27 -10 59 -15 83 -11 22 2
43 1 48 -4 18 -18 106 -21 148 -6 26 9 48 11 63 6 23 -9 105 -6 132 4 8 3 38
9 65 12 28 4 58 11 68 17 10 5 26 11 35 14 91 22 287 110 324 147 10 9 22 17
26 17 5 0 18 14 31 31 l23 30 -39 -25 c-175 -117 -419 -208 -618 -231 -72 -8
-65 4 20 33 33 12 105 37 160 57 55 20 107 38 116 40 8 2 33 11 55 20 21 9 62
25 89 35 28 9 84 30 125 45 41 15 82 29 90 30 8 1 24 5 35 10 42 17 167 129
179 160 3 8 10 15 15 15 36 0 -94 -176 -221 -300 -101 -99 -195 -170 -281
-213 -34 -17 -64 -33 -67 -36 -8 -9 -97 -49 -165 -74 -256 -95 -565 -110 -813
-41 -48 13 -96 26 -107 28 -29 4 -232 96 -290 130 -120 72 -365 283 -365 315
0 6 -7 14 -15 17 -8 4 -15 10 -15 15 0 6 -9 20 -21 32 -26 28 -122 189 -150
253 -29 67 -90 243 -94 274 -2 14 -8 45 -14 70 -6 25 -14 110 -17 190 -8 186
9 327 57 471 11 31 19 61 19 67 0 13 36 94 84 189 39 78 150 240 160 233 4 -3
15 8 23 24 23 43 25 46 110 124 13 12 29 22 35 22 6 0 9 3 5 6 -7 7 61 62 147
119 193 126 491 232 628 221 25 -2 52 1 60 5 7 5 18 9 23 9 6 -1 2 -5 -8 -11z"/>
<path d="M2293 2077 c-58 -28 -64 -53 -24 -86 25 -20 40 -50 70 -138 22 -62
36 -113 33 -113 -4 0 -2 -4 4 -8 18 -12 35 -73 24 -87 -5 -6 -6 -16 -2 -21 4
-5 -2 -1 -14 9 -26 22 -58 22 -81 -1 -10 -10 -30 -24 -45 -31 -25 -13 -30 -12
-49 5 l-21 19 22 17 c12 10 28 18 34 18 24 0 96 41 106 60 11 20 -2 55 -25 72
-7 5 -7 8 0 8 24 1 -73 39 -100 40 -107 1 -190 -71 -197 -169 -2 -22 -6 -41
-9 -41 -3 0 -16 28 -27 63 -35 104 -71 189 -88 209 -22 23 -59 22 -109 -5 -47
-26 -56 -65 -18 -82 12 -5 27 -21 32 -35 5 -14 13 -34 17 -45 4 -11 8 -22 9
-25 5 -20 30 -90 40 -115 42 -96 48 -125 35 -150 -11 -20 -11 -27 0 -40 7 -8
19 -15 27 -15 33 0 125 33 149 54 23 19 24 24 13 48 -6 15 -15 26 -18 23 -16
-9 -35 16 -37 52 l-2 38 15 -31 c23 -47 85 -78 158 -79 65 -1 66 0 133 63 46
43 59 51 46 30 -4 -7 -4 -10 1 -6 4 4 14 3 21 -3 7 -5 25 -8 41 -5 15 2 36 5
46 5 11 1 15 5 11 13 -5 8 -2 9 9 5 9 -3 32 2 49 13 18 10 53 24 78 30 63 17
127 49 134 67 7 18 -20 53 -42 53 -17 0 -92 41 -92 50 0 4 -11 12 -25 18 -33
15 -32 22 10 76 37 48 37 72 2 85 -23 9 -91 -13 -120 -38 -11 -9 -17 -24 -14
-38 2 -13 -1 -30 -8 -39 -12 -18 -23 4 -62 133 -28 93 -61 110 -140 70z m123
-102 c20 -55 44 -122 53 -149 l18 -50 35 67 c32 60 34 66 16 69 -36 6 -23 22
37 45 32 13 63 23 67 23 16 0 7 -38 -10 -42 -16 -5 -79 -96 -70 -102 1 -1 35
-24 73 -52 46 -32 80 -49 100 -49 18 0 31 -6 32 -15 2 -11 -18 -22 -69 -39
-40 -13 -79 -26 -85 -29 -8 -2 -13 4 -13 16 0 11 5 22 10 24 6 2 -12 20 -39
40 -40 30 -51 35 -60 24 -9 -10 -8 -24 5 -55 12 -31 21 -40 37 -38 13 1 22 -4
22 -12 0 -14 -149 -73 -159 -63 -12 11 -5 29 13 38 18 8 15 20 -51 201 -68
184 -72 192 -94 187 -18 -5 -24 -2 -24 9 0 15 94 59 113 54 4 -1 24 -47 43
-102z m-486 -192 c23 -65 50 -140 60 -168 10 -27 25 -68 33 -90 13 -34 18 -40
41 -37 17 2 26 -1 26 -11 0 -13 -127 -67 -157 -67 -21 0 -15 27 7 33 20 5 20
6 -6 74 -14 37 -46 125 -72 195 -43 119 -47 126 -71 125 -44 -3 -29 24 24 43
28 9 55 18 61 19 7 0 31 -52 54 -116z m370 2 c16 -15 30 -35 33 -45 5 -20 -2
-24 -110 -60 -40 -14 -73 -30 -73 -37 0 -17 48 -71 70 -78 27 -9 84 21 100 51
14 25 40 29 47 7 7 -19 -56 -81 -95 -94 -73 -24 -152 -6 -185 44 -8 13 -21 42
-27 64 -37 124 147 237 240 148z"/>
<path d="M2159 1767 c-22 -16 -35 -77 -18 -77 22 0 99 32 99 41 0 14 -38 49
-52 49 -7 0 -20 -6 -29 -13z"/>
<path d="M1660 1648 c-70 -20 -122 -92 -122 -168 1 -28 -3 -50 -8 -50 -15 0
-22 20 -12 33 12 14 -23 107 -40 107 -17 0 -113 -31 -146 -48 -37 -18 -62 -57
-62 -97 l0 -27 -46 27 c-36 21 -54 26 -87 22 -70 -8 -124 -36 -152 -78 -27
-42 -39 -48 -49 -24 -8 22 -65 19 -104 -5 -18 -11 -41 -20 -52 -20 -11 0 -41
-9 -69 -19 l-49 -20 -23 28 c-60 71 -141 75 -287 16 -104 -42 -132 -68 -105
-97 9 -10 18 -16 21 -13 11 11 42 -48 77 -150 20 -60 41 -118 46 -127 7 -12 5
-25 -6 -42 -22 -33 -5 -66 34 -66 15 0 31 3 35 8 4 4 11 8 14 8 52 11 136 56
140 75 4 23 -24 49 -53 49 -14 0 -25 7 -28 20 -4 15 5 25 42 46 58 35 100 82
102 114 0 14 4 34 9 45 9 19 9 19 16 -2 3 -13 10 -23 14 -23 4 0 17 -30 29
-66 15 -47 19 -70 11 -79 -13 -15 -3 -42 19 -54 26 -15 166 37 182 66 10 19
10 26 -2 38 -8 7 -21 15 -29 17 -22 5 -47 39 -59 83 -15 56 -15 58 19 53 17
-3 33 -1 36 4 3 5 10 6 15 3 5 -4 9 -1 9 5 0 20 18 1 24 -25 8 -32 52 -82 89
-102 34 -17 130 -15 167 4 56 28 102 103 78 126 -23 21 -50 19 -77 -6 -34 -31
-58 -39 -82 -27 -21 12 -26 40 -7 40 27 0 138 64 138 80 0 9 7 17 15 17 8 0
15 -4 15 -9 0 -5 5 -6 10 -3 6 3 10 1 10 -5 0 -6 4 -9 9 -6 5 4 8 -2 7 -11 -2
-9 -7 -18 -13 -20 -12 -4 -7 -48 9 -80 15 -31 39 -36 79 -19 19 8 53 20 77 27
46 13 88 54 98 95 7 28 26 31 49 8 13 -14 29 -16 80 -11 93 9 149 44 174 109
9 25 8 29 -19 43 -28 15 -30 14 -60 -15 -37 -36 -74 -47 -92 -29 -27 29 -19
44 30 58 54 16 104 39 113 54 12 18 -4 52 -42 90 -32 32 -43 37 -81 36 -24 0
-59 -5 -78 -11z m114 -22 c35 -15 66 -50 66 -76 0 -10 -15 -20 -37 -27 -153
-45 -166 -58 -112 -112 42 -43 73 -41 120 9 43 45 59 50 59 19 0 -31 -62 -85
-112 -97 -87 -22 -165 21 -188 104 -23 81 28 164 114 184 46 12 54 11 90 -4z
m-286 -113 c6 -20 9 -40 6 -45 -8 -13 -30 -9 -44 7 -25 30 -100 11 -100 -25 0
-28 16 -33 98 -35 65 -1 77 -4 93 -24 23 -28 25 -79 4 -107 -19 -27 -75 -54
-113 -54 -17 0 -32 -6 -36 -15 -11 -29 -35 -16 -47 25 -15 51 -1 74 29 47 22
-20 90 -22 115 -3 14 11 24 44 15 47 -2 0 -40 4 -86 8 -97 9 -132 32 -132 87
0 53 64 100 130 96 8 0 19 6 23 14 14 25 33 15 45 -23z m-269 -120 c44 -41 44
-65 1 -80 -132 -46 -145 -52 -142 -70 5 -28 59 -73 88 -73 16 0 39 13 61 35
32 32 63 46 63 28 0 -23 -43 -72 -75 -87 -83 -40 -162 -26 -207 36 -31 44 -33
134 -3 174 51 67 161 86 214 37z m-619 -78 c30 -27 50 -80 50 -131 0 -57 -40
-104 -115 -134 -31 -13 -54 -28 -51 -34 3 -6 10 -28 17 -49 11 -34 15 -38 38
-31 41 10 54 10 58 -3 3 -7 -6 -17 -19 -22 -91 -37 -160 -61 -173 -61 -22 0
-18 28 5 35 11 3 20 11 20 18 0 6 -25 79 -55 161 -31 83 -58 157 -61 165 -3 9
-13 11 -29 7 -14 -4 -25 -2 -25 4 0 5 -1 13 -2 16 -2 4 44 24 102 45 120 45
201 49 240 14z m324 9 c19 -18 20 -28 6 -55 -13 -24 -56 -25 -69 -2 -8 14 -12
15 -25 4 -9 -7 -16 -22 -16 -33 0 -17 48 -166 57 -177 1 -2 14 1 27 7 19 8 27
8 36 -3 14 -17 5 -22 -80 -53 -84 -30 -93 -31 -98 -9 -2 10 3 17 12 17 22 0
20 12 -18 120 -30 83 -37 95 -57 95 -42 0 -26 27 29 48 46 17 55 18 63 6 8
-12 11 -12 22 1 19 24 60 50 79 50 9 0 24 -7 32 -16z"/>
<path d="M1680 1592 c-34 -12 -57 -82 -27 -82 16 0 85 24 93 33 16 16 -41 58
-66 49z"/>
<path d="M1082 1372 c-16 -10 -22 -24 -22 -49 0 -24 4 -34 13 -30 102 41 97
37 81 62 -19 30 -44 36 -72 17z"/>
<path d="M432 1293 c-13 -3 -26 -11 -29 -19 -5 -14 52 -190 67 -207 4 -5 23
-2 43 7 27 11 38 23 45 50 16 57 -7 130 -50 160 -22 16 -33 17 -76 9z m79 -53
c10 -14 20 -46 23 -72 5 -40 3 -49 -14 -58 -28 -15 -34 -9 -64 66 -21 52 -24
69 -15 81 17 20 49 12 70 -17z"/>
</g>
</svg>
